<svg width="180" height="180" viewBox="0 0 180 180" xmlns="http://www.w3.org/2000/svg">
  <defs>
    <linearGradient id="bg" x1="0" y1="0" x2="1" y2="1">
      <stop offset="0%" stop-color="#8b5cf6"/>
      <stop offset="100%" stop-color="#ec4899"/>
    </linearGradient>
    <linearGradient id="hl" x1="0" y1="0" x2="1" y2="1">
      <stop offset="0%" stop-color="#fbbf24"/>
      <stop offset="100%" stop-color="#f59e0b"/>
    </linearGradient>
  </defs>

  <rect width="180" height="180" rx="36" fill="url(#bg)"/>

  <g font-family="'Outfit', system-ui, sans-serif" font-weight="800" font-size="32" text-anchor="middle" fill="#ffffff">
    <rect x="22" y="22" width="40" height="40" rx="8" fill="rgba(255,255,255,0.10)"/>
    <text x="42" y="52">W</text>

    <rect x="70" y="22" width="40" height="40" rx="8" fill="rgba(255,255,255,0.10)"/>
    <text x="90" y="52">Q</text>

    <rect x="118" y="22" width="40" height="40" rx="8" fill="rgba(255,255,255,0.10)"/>
    <text x="138" y="52">P</text>

    <rect x="22" y="70" width="40" height="40" rx="8" fill="rgba(255,255,255,0.10)"/>
    <text x="42" y="100">F</text>

    <rect x="70" y="70" width="40" height="40" rx="8" fill="rgba(255,255,255,0.10)"/>
    <text x="90" y="100">N</text>

    <rect x="118" y="70" width="40" height="40" rx="8" fill="rgba(255,255,255,0.10)"/>
    <text x="138" y="100">L</text>

    <rect x="22" y="118" width="40" height="40" rx="8" fill="rgba(255,255,255,0.10)"/>
    <text x="42" y="148">R</text>

    <rect x="70" y="118" width="40" height="40" rx="8" fill="rgba(255,255,255,0.10)"/>
    <text x="90" y="148">D</text>

    <rect x="118" y="118" width="40" height="40" rx="8" fill="rgba(255,255,255,0.10)"/>
    <text x="138" y="148">S</text>
  </g>

  <g>
    <rect x="18" y="66" width="144" height="48" rx="24" fill="url(#hl)" opacity="0.55"/>
  </g>

  <g font-family="'Outfit', system-ui, sans-serif" font-weight="900" font-size="32" text-anchor="middle" fill="#ffffff">
    <text x="42" y="100">F</text>
    <text x="90" y="100">U</text>
    <text x="138" y="100">N</text>
  </g>
</svg>
